<?xml version="1.0" encoding="UTF-8" standalone="no"?>
<!-- Created with Inkscape (http://www.inkscape.org/) -->

<svg
   width="243.71964mm"
   height="137.90744mm"
   viewBox="0 0 243.71964 137.90744"
   version="1.1"
   id="svg5"
   xml:space="preserve"
   xmlns="http://www.w3.org/2000/svg"
   xmlns:svg="http://www.w3.org/2000/svg"><defs
     id="defs2"><clipPath
       clipPathUnits="userSpaceOnUse"
       id="clipPath938"><g
         id="g942"
         transform="matrix(2.8346458,0,0,-2.8346458,253.08957,874.96392)"><path
           d="M -89.284375,308.66782 H 190.68006 V 98.694491 H -89.284375 Z"
           clip-rule="evenodd"
           id="path940"
           style="stroke-width:0.352778" /></g></clipPath><clipPath
       clipPathUnits="userSpaceOnUse"
       id="clipPath944"><g
         id="g948"
         transform="matrix(2.8346458,0,0,-2.8346458,253.08957,874.96392)"><path
           d="M -89.284375,308.66782 H 190.68006 V 98.694491 H -89.284375 Z"
           clip-rule="evenodd"
           id="path946"
           style="stroke-width:0.352778" /></g></clipPath><clipPath
       clipPathUnits="userSpaceOnUse"
       id="clipPath950"><g
         id="g954"
         transform="matrix(2.8346458,0,0,-2.8346458,253.08957,874.96392)"><path
           d="M -89.284375,308.66782 H 190.68006 V 98.694491 H -89.284375 Z"
           clip-rule="evenodd"
           id="path952"
           style="stroke-width:0.352778" /></g></clipPath><clipPath
       clipPathUnits="userSpaceOnUse"
       id="clipPath956"><g
         id="g960"
         transform="matrix(2.8346458,0,0,-2.8346458,253.08957,874.96392)"><path
           d="M -89.284375,308.66782 H 190.68006 V 98.694491 H -89.284375 Z"
           clip-rule="evenodd"
           id="path958"
           style="stroke-width:0.352778" /></g></clipPath><clipPath
       clipPathUnits="userSpaceOnUse"
       id="clipPath962"><g
         id="g966"
         transform="matrix(2.8346458,0,0,-2.8346458,253.08957,874.96392)"><path
           d="M -89.284375,308.66782 H 190.68006 V 98.694491 H -89.284375 Z"
           clip-rule="evenodd"
           id="path964"
           style="stroke-width:0.352778" /></g></clipPath><clipPath
       clipPathUnits="userSpaceOnUse"
       id="clipPath968"><g
         id="g972"
         transform="matrix(2.8346458,0,0,-2.8346458,253.08957,874.96392)"><path
           d="M -89.284375,308.66782 H 190.68006 V 98.694491 H -89.284375 Z"
           clip-rule="evenodd"
           id="path970"
           style="stroke-width:0.352778" /></g></clipPath><clipPath
       clipPathUnits="userSpaceOnUse"
       id="clipPath974"><g
         id="g978"><path
           d="M -89.284375,308.66782 H 190.68006 V 98.694491 H -89.284375 Z"
           clip-rule="evenodd"
           id="path976"
           style="stroke-width:0.352778" /></g></clipPath><clipPath
       clipPathUnits="userSpaceOnUse"
       id="clipPath980"><g
         id="g984"><path
           d="M -89.284375,308.66782 H 190.68006 V 98.694491 H -89.284375 Z"
           clip-rule="evenodd"
           id="path982"
           style="stroke-width:0.352778" /></g></clipPath><clipPath
       clipPathUnits="userSpaceOnUse"
       id="clipPath986"><g
         id="g990"><path
           d="M -89.284375,308.66782 H 190.68006 V 98.694491 H -89.284375 Z"
           clip-rule="evenodd"
           id="path988"
           style="stroke-width:0.352778" /></g></clipPath><clipPath
       clipPathUnits="userSpaceOnUse"
       id="clipPath992"><g
         id="g996"><path
           d="M -89.284375,308.66782 H 190.68006 V 98.694491 H -89.284375 Z"
           clip-rule="evenodd"
           id="path994"
           style="stroke-width:0.352778" /></g></clipPath><clipPath
       clipPathUnits="userSpaceOnUse"
       id="clipPath998"><g
         id="g1002"><path
           d="M -89.284375,308.66782 H 190.68006 V 98.694491 H -89.284375 Z"
           clip-rule="evenodd"
           id="path1000"
           style="stroke-width:0.352778" /></g></clipPath><clipPath
       clipPathUnits="userSpaceOnUse"
       id="clipPath1004"><g
         id="g1008"><path
           d="M -89.284375,308.66782 H 190.68006 V 98.694491 H -89.284375 Z"
           clip-rule="evenodd"
           id="path1006"
           style="stroke-width:0.352778" /></g></clipPath><clipPath
       clipPathUnits="userSpaceOnUse"
       id="clipPath1010"><g
         id="g1014"><path
           d="M -89.284375,308.66782 H 190.68006 V 98.694491 H -89.284375 Z"
           clip-rule="evenodd"
           id="path1012"
           style="stroke-width:0.352778" /></g></clipPath><clipPath
       clipPathUnits="userSpaceOnUse"
       id="clipPath1016"><g
         id="g1020"><path
           d="M -89.284375,308.66782 H 190.68006 V 98.694491 H -89.284375 Z"
           clip-rule="evenodd"
           id="path1018"
           style="stroke-width:0.352778" /></g></clipPath><clipPath
       clipPathUnits="userSpaceOnUse"
       id="clipPath1022"><g
         id="g1026"><path
           d="M -89.284375,308.66782 H 190.68006 V 98.694491 H -89.284375 Z"
           clip-rule="evenodd"
           id="path1024"
           style="stroke-width:0.352778" /></g></clipPath><clipPath
       clipPathUnits="userSpaceOnUse"
       id="clipPath1028"><g
         id="g1032"><path
           d="M -89.284375,308.66782 H 190.68006 V 98.694491 H -89.284375 Z"
           clip-rule="evenodd"
           id="path1030"
           style="stroke-width:0.352778" /></g></clipPath><clipPath
       clipPathUnits="userSpaceOnUse"
       id="clipPath1034"><g
         id="g1038"><path
           d="M -89.284375,308.66782 H 190.68006 V 98.694491 H -89.284375 Z"
           clip-rule="evenodd"
           id="path1036"
           style="stroke-width:0.352778" /></g></clipPath><clipPath
       clipPathUnits="userSpaceOnUse"
       id="clipPath1040"><g
         id="g1044"><path
           d="M -89.284375,308.66782 H 190.68006 V 98.694491 H -89.284375 Z"
           clip-rule="evenodd"
           id="path1042"
           style="stroke-width:0.352778" /></g></clipPath><clipPath
       clipPathUnits="userSpaceOnUse"
       id="clipPath1046"><g
         id="g1050"
         transform="matrix(2.8346458,0,0,-2.8346458,253.08957,874.96392)"><path
           d="M -89.284375,308.66782 H 190.68006 V 98.694491 H -89.284375 Z"
           clip-rule="evenodd"
           id="path1048"
           style="stroke-width:0.352778" /></g></clipPath><clipPath
       clipPathUnits="userSpaceOnUse"
       id="clipPath1052"><g
         id="g1056"
         transform="matrix(2.8346458,0,0,-2.8346458,253.08957,874.96392)"><path
           d="M -89.284375,308.66782 H 190.68006 V 98.694491 H -89.284375 Z"
           clip-rule="evenodd"
           id="path1054"
           style="stroke-width:0.352778" /></g></clipPath><clipPath
       clipPathUnits="userSpaceOnUse"
       id="clipPath1058"><g
         id="g1062"
         transform="matrix(2.8346458,0,0,-2.8346458,253.08957,874.96392)"><path
           d="M -89.284375,308.66782 H 190.68006 V 98.694491 H -89.284375 Z"
           clip-rule="evenodd"
           id="path1060"
           style="stroke-width:0.352778" /></g></clipPath><clipPath
       clipPathUnits="userSpaceOnUse"
       id="clipPath1064"><g
         id="g1068"
         transform="matrix(2.8346458,0,0,-2.8346458,253.08957,874.96392)"><path
           d="M -89.284375,308.66782 H 190.68006 V 98.694491 H -89.284375 Z"
           clip-rule="evenodd"
           id="path1066"
           style="stroke-width:0.352778" /></g></clipPath><clipPath
       clipPathUnits="userSpaceOnUse"
       id="clipPath1070"><g
         id="g1074"
         transform="matrix(2.8346458,0,0,-2.8346458,253.08957,874.96392)"><path
           d="M -89.284375,308.66782 H 190.68006 V 98.694491 H -89.284375 Z"
           clip-rule="evenodd"
           id="path1072"
           style="stroke-width:0.352778" /></g></clipPath><clipPath
       clipPathUnits="userSpaceOnUse"
       id="clipPath1076"><g
         id="g1080"
         transform="matrix(2.8346458,0,0,-2.8346458,253.08957,874.96392)"><path
           d="M -89.284375,308.66782 H 190.68006 V 98.694491 H -89.284375 Z"
           clip-rule="evenodd"
           id="path1078"
           style="stroke-width:0.352778" /></g></clipPath><clipPath
       clipPathUnits="userSpaceOnUse"
       id="clipPath1082"><g
         id="g1086"
         transform="matrix(2.8346458,0,0,-2.8346458,253.08957,874.96392)"><path
           d="M -89.284375,308.66782 H 190.68006 V 98.694491 H -89.284375 Z"
           clip-rule="evenodd"
           id="path1084"
           style="stroke-width:0.352778" /></g></clipPath><clipPath
       clipPathUnits="userSpaceOnUse"
       id="clipPath1088"><g
         id="g1092"
         transform="matrix(2.8346458,0,0,-2.8346458,253.08957,874.96392)"><path
           d="M -89.284375,308.66782 H 190.68006 V 98.694491 H -89.284375 Z"
           clip-rule="evenodd"
           id="path1090"
           style="stroke-width:0.352778" /></g></clipPath><clipPath
       clipPathUnits="userSpaceOnUse"
       id="clipPath1094"><g
         id="g1098"
         transform="matrix(2.8346458,0,0,-2.8346458,253.08957,874.96392)"><path
           d="M -89.284375,308.66782 H 190.68006 V 98.694491 H -89.284375 Z"
           clip-rule="evenodd"
           id="path1096"
           style="stroke-width:0.352778" /></g></clipPath><clipPath
       clipPathUnits="userSpaceOnUse"
       id="clipPath1100"><g
         id="g1104"
         transform="matrix(2.8346458,0,0,-2.8346458,253.08957,874.96392)"><path
           d="M -89.284375,308.66782 H 190.68006 V 98.694491 H -89.284375 Z"
           clip-rule="evenodd"
           id="path1102"
           style="stroke-width:0.352778" /></g></clipPath><clipPath
       clipPathUnits="userSpaceOnUse"
       id="clipPath1106"><g
         id="g1110"
         transform="matrix(2.8346458,0,0,-2.8346458,253.08957,874.96392)"><path
           d="M -89.284375,308.66782 H 190.68006 V 98.694491 H -89.284375 Z"
           clip-rule="evenodd"
           id="path1108"
           style="stroke-width:0.352778" /></g></clipPath><clipPath
       clipPathUnits="userSpaceOnUse"
       id="clipPath1112"><g
         id="g1116"
         transform="matrix(2.8346458,0,0,-2.8346458,253.08957,874.96392)"><path
           d="M -89.284375,308.66782 H 190.68006 V 98.694491 H -89.284375 Z"
           clip-rule="evenodd"
           id="path1114"
           style="stroke-width:0.352778" /></g></clipPath><clipPath
       clipPathUnits="userSpaceOnUse"
       id="clipPath1118"><g
         id="g1122"
         transform="matrix(2.8346458,0,0,-2.8346458,253.08957,874.96392)"><path
           d="M -89.284375,308.66782 H 190.68006 V 98.694491 H -89.284375 Z"
           clip-rule="evenodd"
           id="path1120"
           style="stroke-width:0.352778" /></g></clipPath><clipPath
       clipPathUnits="userSpaceOnUse"
       id="clipPath1124"><g
         id="g1128"><path
           d="M -89.284375,308.66782 H 190.68006 V 98.694491 H -89.284375 Z"
           clip-rule="evenodd"
           id="path1126"
           style="stroke-width:0.352778" /></g></clipPath></defs><g
     id="layer1"
     transform="translate(69.488581,-158.08711)"><g
       id="g166"
       transform="matrix(0.35277777,0,0,-0.35277777,-89.284375,308.66782)" /><g
       id="g168"
       transform="matrix(0.35277777,0,0,-0.35277777,-89.284375,308.66782)" /><g
       id="g276"
       transform="matrix(0.35277777,0,0,-0.35277777,-89.284375,308.66782)"><text
         xml:space="preserve"
         transform="matrix(1,0,0,-1,165,413.8)"
         style="font-variant:normal;font-weight:normal;font-size:18px;font-family:'Liberation Sans';-inkscape-font-specification:LiberationSans;writing-mode:lr-tb;fill:#000000;fill-opacity:1;fill-rule:nonzero;stroke:none"
         id="text280"><tspan
           x="0 12.996 23.004 32.903999 42.911999"
           y="0"
           id="tspan278">Nodes</tspan></text></g><g
       id="g282"
       transform="matrix(0.35277777,0,0,-0.35277777,-89.284375,308.66782)"><text
         xml:space="preserve"
         transform="matrix(1,0,0,-1,155,393.6)"
         style="font-variant:normal;font-weight:normal;font-size:18px;font-family:'Liberation Sans';-inkscape-font-specification:LiberationSans;writing-mode:lr-tb;fill:#000000;fill-opacity:1;fill-rule:nonzero;stroke:none"
         id="text286"><tspan
           x="0 14.994 27.9 40.896 52.883999"
           y="0"
           id="tspan284">MRCAs</tspan></text></g><g
       id="g288"
       transform="matrix(0.35277777,0,0,-0.35277777,-89.284375,308.66782)"><text
         xml:space="preserve"
         transform="matrix(1,0,0,-1,55.2,373.4)"
         style="font-variant:normal;font-weight:normal;font-size:18px;font-family:'Liberation Sans';-inkscape-font-specification:LiberationSans;writing-mode:lr-tb;fill:#000000;fill-opacity:1;fill-rule:nonzero;stroke:none"
         id="text292"><tspan
           x="0 12.996 23.004 32.903999 36.900002 46.799999 55.889999 64.781998 74.790001 84.797997 93.797997 103.698 108.774 118.674 127.674 137.68201 147.582 152.658"
           y="0"
           id="tspan290">Coalescence events</tspan></text></g><g
       id="g306"
       transform="matrix(0.35277777,0,0,-0.35277777,-89.284375,308.66782)"><text
         xml:space="preserve"
         transform="matrix(1,0,0,-1,135.4,150.1)"
         style="font-variant:normal;font-weight:normal;font-size:18px;font-family:'Liberation Sans';-inkscape-font-specification:LiberationSans;writing-mode:lr-tb;fill:#000000;fill-opacity:1;fill-rule:nonzero;stroke:none"
         id="text310"><tspan
           x="0 11.988 17.982 27.882 37.889999 46.889999 56.897999 66.797997"
           y="0"
           id="tspan308">Branches</tspan></text></g><g
       id="g312"
       transform="matrix(0.35277777,0,0,-0.35277777,-89.284375,308.66782)"
       clip-path="url(#clipPath968)"
       style="stroke-width:0.99975002;stroke-dasharray:none"><path
         d="m 558.4,393.9 c 11.4,0 22.7,-6.1 22.7,-12.2 V 258.8 c 0,-6.1 -11.3,-12.3 -22.7,-12.3"
         style="fill:none;stroke:#000000;stroke-width:0.99975002;stroke-linecap:butt;stroke-linejoin:round;stroke-miterlimit:10;stroke-dasharray:none;stroke-opacity:1"
         id="path314" /></g><g
       id="g320"
       transform="matrix(0.35277777,0,0,-0.35277777,-89.284375,308.66782)"
       clip-path="url(#clipPath956)"><path
         d="M 581.1,246.5 Z"
         style="fill:none;stroke:#000000;stroke-width:0.75;stroke-linecap:butt;stroke-linejoin:round;stroke-miterlimit:10;stroke-dasharray:none;stroke-opacity:1"
         id="path322" /></g><g
       id="g324"
       transform="matrix(0.35277777,0,0,-0.35277777,-89.284375,308.66782)"><text
         xml:space="preserve"
         transform="matrix(1,0,0,-1,591,324.9)"
         style="font-variant:normal;font-weight:normal;font-size:18px;font-family:'Liberation Sans';-inkscape-font-specification:LiberationSans;writing-mode:lr-tb;fill:#000000;fill-opacity:1;fill-rule:nonzero;stroke:none"
         id="text328"><tspan
           x="0 12.996 16.902 26.91 36.917999"
           y="0"
           id="tspan326">Clade</tspan></text></g><g
       id="g330"
       transform="matrix(0.35277777,0,0,-0.35277777,-89.284375,308.66782)"><text
         xml:space="preserve"
         transform="matrix(1,0,0,-1,591,304.8)"
         style="font-variant:normal;font-weight:normal;font-size:18px;font-family:'Liberation Sans';-inkscape-font-specification:LiberationSans;writing-mode:lr-tb;fill:#000000;fill-opacity:1;fill-rule:nonzero;stroke:none"
         id="text334"><tspan
           x="0 14.994 25.002001 34.902 44.91 54.917999 64.818001 73.818001 77.814003 87.821999 92.807999 96.713997 105.804 110.79 120.798 126.702 136.71001 146.718"
           y="0"
           id="tspan332">Monophyletic group</tspan></text></g><g
       id="g348"
       transform="matrix(0.35277777,0,0,-0.35277777,-89.284375,308.66782)"><text
         xml:space="preserve"
         transform="matrix(1,0,0,-1,299.1,76.4)"
         style="font-variant:normal;font-weight:normal;font-size:18px;font-family:'Liberation Sans';-inkscape-font-specification:LiberationSans;writing-mode:lr-tb;fill:#000000;fill-opacity:1;fill-rule:nonzero;stroke:none"
         id="text352"><tspan
           x="0 11.898 17.982 27.882 37.889999 46.889999 56.790001 61.866001 65.772003 75.779999 85.788002 95.688004 100.764 110.664"
           y="0"
           id="tspan350">Branch lengths</tspan></text></g><g
       id="g354"
       transform="matrix(0.35277777,0,0,-0.35277777,-89.284375,308.66782)"><text
         xml:space="preserve"
         transform="matrix(1,0,0,-1,299.1,56.3)"
         style="font-variant:normal;font-weight:normal;font-size:18px;font-family:'Liberation Sans';-inkscape-font-specification:LiberationSans;writing-mode:lr-tb;fill:#000000;fill-opacity:1;fill-rule:nonzero;stroke:none"
         id="text358"><tspan
           x="0 11.898 21.906 31.914 40.914001 45.900002 49.896 54.882 64.889999 69.875999 73.872002 83.772003 93.779999"
           y="0"
           id="tspan356">Substitutions</tspan></text></g><g
       id="g360"
       transform="matrix(0.35277777,0,0,-0.35277777,-89.284375,308.66782)"><text
         xml:space="preserve"
         transform="matrix(1,0,0,-1,299.1,36.1)"
         style="font-variant:normal;font-weight:normal;font-size:18px;font-family:'Liberation Sans';-inkscape-font-specification:LiberationSans;writing-mode:lr-tb;fill:#000000;fill-opacity:1;fill-rule:nonzero;stroke:none"
         id="text364"><tspan
           x="0 10.296 14.202 29.195999"
           y="0"
           id="tspan362">Time</tspan></text></g><g
       id="g176"
       transform="matrix(0.35277777,0,0,-0.35277777,-89.284375,308.66782)"><text
         xml:space="preserve"
         transform="matrix(1,0,0,-1,455,367.6)"
         style="font-variant:normal;font-weight:normal;font-size:22px;font-family:'Liberation Sans';-inkscape-font-specification:LiberationSans;writing-mode:lr-tb;fill:#000000;fill-opacity:1;fill-rule:nonzero;stroke:none"
         id="text180"><tspan
           x="0 14.608 19.492001 24.464001 36.674 41.557999"
           y="0"
           id="tspan178">Allele</tspan></text></g><g
       id="g182"
       transform="matrix(0.35277777,0,0,-0.35277777,-89.284375,308.66782)"><text
         xml:space="preserve"
         transform="matrix(1,0,0,-1,455,305.2)"
         style="font-variant:normal;font-weight:normal;font-size:22px;font-family:'Liberation Sans';-inkscape-font-specification:LiberationSans;writing-mode:lr-tb;fill:#000000;fill-opacity:1;fill-rule:nonzero;stroke:none"
         id="text186"><tspan
           x="0 12.606 17.49"
           y="0"
           id="tspan184">Tip</tspan></text></g><g
       id="g188"
       transform="matrix(0.35277777,0,0,-0.35277777,-89.284375,308.66782)"><text
         xml:space="preserve"
         transform="matrix(1,0,0,-1,455,367.6)"
         style="font-variant:normal;font-weight:normal;font-size:22px;font-family:'Liberation Sans';-inkscape-font-specification:LiberationSans;writing-mode:lr-tb;fill:#000000;fill-opacity:1;fill-rule:nonzero;stroke:none"
         id="text192"><tspan
           x="0 14.608 19.492001 24.464001 36.674 41.557999"
           y="0"
           id="tspan190">Allele</tspan></text></g><g
       id="g194"
       transform="matrix(0.35277777,0,0,-0.35277777,-89.284375,308.66782)"><text
         xml:space="preserve"
         transform="matrix(1,0,0,-1,455,251.4)"
         style="font-variant:normal;font-weight:normal;font-size:22px;font-family:'Liberation Sans';-inkscape-font-specification:LiberationSans;writing-mode:lr-tb;fill:#000000;fill-opacity:1;fill-rule:nonzero;stroke:none"
         id="text198"><tspan
           x="0 6.0939999 18.304001 30.58 35.464001 46.464001 51.348 63.624001 75.834 88.110001"
           y="0"
           id="tspan196">Individual</tspan></text></g><g
       id="g200"
       transform="matrix(0.35277777,0,0,-0.35277777,-89.284375,308.66782)"><text
         xml:space="preserve"
         transform="matrix(1,0,0,-1,455,200.4)"
         style="font-variant:normal;font-weight:normal;font-size:22px;font-family:'Liberation Sans';-inkscape-font-specification:LiberationSans;writing-mode:lr-tb;fill:#000000;fill-opacity:1;fill-rule:nonzero;stroke:none"
         id="text204"><tspan
           x="0 11 23.209999 34.298 46.507999"
           y="0"
           id="tspan202">Taxon</tspan></text></g><g
       id="g206"
       transform="matrix(0.35277777,0,0,-0.35277777,-89.284375,308.66782)"><text
         xml:space="preserve"
         transform="matrix(1,0,0,-1,455,138)"
         style="font-variant:normal;font-weight:normal;font-size:22px;font-family:'Liberation Sans';-inkscape-font-specification:LiberationSans;writing-mode:lr-tb;fill:#000000;fill-opacity:1;fill-rule:nonzero;stroke:none"
         id="text210"><tspan
           x="0 17.006001 30.403999"
           y="0"
           id="tspan208">OTU</tspan></text></g><g
       id="g212"
       transform="matrix(0.35277777,0,0,-0.35277777,-89.284375,308.66782)"
       clip-path="url(#clipPath1118)"><path
         d="m 394,374.1 h 51"
         style="fill:none;stroke:#000000;stroke-width:2.83;stroke-linecap:round;stroke-linejoin:round;stroke-miterlimit:10;stroke-dasharray:none;stroke-opacity:1"
         id="path214" /></g><g
       id="g216"
       transform="matrix(0.35277777,0,0,-0.35277777,-89.284375,308.66782)"
       clip-path="url(#clipPath1112)"><path
         d="M 394,374.1 V 311.7"
         style="fill:none;stroke:#000000;stroke-width:2.83;stroke-linecap:round;stroke-linejoin:round;stroke-miterlimit:10;stroke-dasharray:none;stroke-opacity:1"
         id="path218" /></g><g
       id="g220"
       transform="matrix(0.35277777,0,0,-0.35277777,-89.284375,308.66782)"
       clip-path="url(#clipPath1106)"><path
         d="m 394,311.7 h 51"
         style="fill:none;stroke:#000000;stroke-width:2.83;stroke-linecap:round;stroke-linejoin:round;stroke-miterlimit:10;stroke-dasharray:none;stroke-opacity:1"
         id="path222" /></g><g
       id="g224"
       transform="matrix(0.35277777,0,0,-0.35277777,-89.284375,308.66782)"
       clip-path="url(#clipPath1100)"><path
         d="m 343,342.9 h 51"
         style="fill:none;stroke:#000000;stroke-width:2.83;stroke-linecap:round;stroke-linejoin:round;stroke-miterlimit:10;stroke-dasharray:none;stroke-opacity:1"
         id="path226" /></g><g
       id="g228"
       transform="matrix(0.35277777,0,0,-0.35277777,-89.284375,308.66782)"
       clip-path="url(#clipPath1094)"><path
         d="m 343,342.9 v -85"
         style="fill:none;stroke:#000000;stroke-width:2.83;stroke-linecap:round;stroke-linejoin:round;stroke-miterlimit:10;stroke-dasharray:none;stroke-opacity:1"
         id="path230" /></g><g
       id="g232"
       transform="matrix(0.35277777,0,0,-0.35277777,-89.284375,308.66782)"
       clip-path="url(#clipPath1088)"><path
         d="M 343,257.9 H 445"
         style="fill:none;stroke:#000000;stroke-width:2.83;stroke-linecap:round;stroke-linejoin:round;stroke-miterlimit:10;stroke-dasharray:none;stroke-opacity:1"
         id="path234" /></g><g
       id="g236"
       transform="matrix(0.35277777,0,0,-0.35277777,-89.284375,308.66782)"
       clip-path="url(#clipPath1082)"><path
         d="m 394,206.9 h 51"
         style="fill:none;stroke:#000000;stroke-width:2.83;stroke-linecap:round;stroke-linejoin:round;stroke-miterlimit:10;stroke-dasharray:none;stroke-opacity:1"
         id="path238" /></g><g
       id="g240"
       transform="matrix(0.35277777,0,0,-0.35277777,-89.284375,308.66782)"
       clip-path="url(#clipPath1076)"><path
         d="M 394,206.9 V 144.5"
         style="fill:none;stroke:#000000;stroke-width:2.83;stroke-linecap:round;stroke-linejoin:round;stroke-miterlimit:10;stroke-dasharray:none;stroke-opacity:1"
         id="path242" /></g><g
       id="g244"
       transform="matrix(0.35277777,0,0,-0.35277777,-89.284375,308.66782)"
       clip-path="url(#clipPath1070)"><path
         d="m 394,144.5 h 51"
         style="fill:none;stroke:#000000;stroke-width:2.83;stroke-linecap:round;stroke-linejoin:round;stroke-miterlimit:10;stroke-dasharray:none;stroke-opacity:1"
         id="path246" /></g><g
       id="g248"
       transform="matrix(0.35277777,0,0,-0.35277777,-89.284375,308.66782)"
       clip-path="url(#clipPath1064)"><path
         d="M 280.6,175.7 H 394"
         style="fill:none;stroke:#000000;stroke-width:2.83;stroke-linecap:round;stroke-linejoin:round;stroke-miterlimit:10;stroke-dasharray:none;stroke-opacity:1"
         id="path250" /></g><g
       id="g252"
       transform="matrix(0.35277777,0,0,-0.35277777,-89.284375,308.66782)"
       clip-path="url(#clipPath1058)"><path
         d="M 280.6,300.4 V 175.7"
         style="fill:none;stroke:#000000;stroke-width:2.83;stroke-linecap:round;stroke-linejoin:round;stroke-miterlimit:10;stroke-dasharray:none;stroke-opacity:1"
         id="path254" /></g><g
       id="g256"
       transform="matrix(0.35277777,0,0,-0.35277777,-89.284375,308.66782)"
       clip-path="url(#clipPath1052)"><path
         d="M 280.6,300.4 H 343"
         style="fill:none;stroke:#000000;stroke-width:2.83;stroke-linecap:round;stroke-linejoin:round;stroke-miterlimit:10;stroke-dasharray:none;stroke-opacity:1"
         id="path258" /></g><g
       id="g260"
       transform="matrix(0.35277777,0,0,-0.35277777,-89.284375,308.66782)"
       clip-path="url(#clipPath1046)"><path
         d="m 229.6,235.2 h 51"
         style="fill:none;stroke:#000000;stroke-width:2.83;stroke-linecap:round;stroke-linejoin:round;stroke-miterlimit:10;stroke-dasharray:none;stroke-opacity:1"
         id="path262" /></g><path
       d="m -10.297432,177.68143 55.774165,9.31334"
       style="fill:none;stroke:#ff3333;stroke-width:0.529167;stroke-linecap:butt;stroke-linejoin:miter;stroke-miterlimit:10;stroke-dasharray:none;stroke-opacity:1"
       id="path264"
       clip-path="url(#clipPath1040)" /><path
       d="m 49.710066,187.70032 -4.198055,-2.2225 -0.493889,2.96334 z"
       style="fill:#ff3333;fill-opacity:1;fill-rule:evenodd;stroke:none;stroke-width:0.352778"
       id="path266"
       clip-path="url(#clipPath1034)" /><path
       d="m -10.297432,177.68143 38.311666,22.82473"
       style="fill:none;stroke:#ff3333;stroke-width:0.529167;stroke-linecap:butt;stroke-linejoin:miter;stroke-miterlimit:10;stroke-dasharray:none;stroke-opacity:1"
       id="path268"
       clip-path="url(#clipPath1028)" /><path
       d="m 31.7184,202.69338 -3.104444,-3.59834 -1.516945,2.57528 z"
       style="fill:#ff3333;fill-opacity:1;fill-rule:evenodd;stroke:none;stroke-width:0.352778"
       id="path270"
       clip-path="url(#clipPath1022)" /><path
       d="M -10.297432,177.68143 8.0822895,221.7081"
       style="fill:none;stroke:#ff3333;stroke-width:0.529167;stroke-linecap:butt;stroke-linejoin:miter;stroke-miterlimit:10;stroke-dasharray:none;stroke-opacity:1"
       id="path272"
       clip-path="url(#clipPath1016)" /><path
       d="m 9.7050673,225.69449 -0.3527778,-4.72722 -2.7516666,1.16416 z"
       style="fill:#ff3333;fill-opacity:1;fill-rule:evenodd;stroke:none;stroke-width:0.352778"
       id="path274"
       clip-path="url(#clipPath1010)" /><path
       d="m -12.272988,251.69421 29.633333,-45.4025"
       style="fill:none;stroke:#0000cc;stroke-width:0.529167;stroke-linecap:butt;stroke-linejoin:miter;stroke-miterlimit:10;stroke-dasharray:none;stroke-opacity:1"
       id="path294"
       clip-path="url(#clipPath1004)" /><path
       d="m 19.723956,202.69338 -3.739444,2.96333 2.54,1.62278 z"
       style="fill:#0000cc;fill-opacity:1;fill-rule:evenodd;stroke:none;stroke-width:0.352778"
       id="path296"
       clip-path="url(#clipPath998)" /><path
       d="M -12.272988,251.69421 40.043955,219.90893"
       style="fill:none;stroke:#0000cc;stroke-width:0.529167;stroke-linecap:butt;stroke-linejoin:miter;stroke-miterlimit:10;stroke-dasharray:none;stroke-opacity:1"
       id="path298"
       clip-path="url(#clipPath992)" /><path
       d="m 43.712844,217.68643 -4.621388,1.05834 1.552222,2.57527 z"
       style="fill:#0000cc;fill-opacity:1;fill-rule:evenodd;stroke:none;stroke-width:0.352778"
       id="path300"
       clip-path="url(#clipPath986)" /><path
       d="m -12.272988,251.69421 41.73361,-4.55083"
       style="fill:none;stroke:#0000cc;stroke-width:0.529167;stroke-linecap:butt;stroke-linejoin:miter;stroke-miterlimit:10;stroke-dasharray:none;stroke-opacity:1"
       id="path302"
       clip-path="url(#clipPath980)" /><path
       d="m 33.729233,246.68477 -4.656666,-0.98778 0.3175,2.96333 z"
       style="fill:#0000cc;fill-opacity:1;fill-rule:evenodd;stroke:none;stroke-width:0.352778"
       id="path304"
       clip-path="url(#clipPath974)" /><g
       id="g316"
       transform="matrix(0.35277777,0,0,-0.35277777,-89.284375,308.66782)"
       clip-path="url(#clipPath962)"><path
         d="M 558.4,393.9 Z"
         style="fill:none;stroke:#000000;stroke-width:0.75;stroke-linecap:butt;stroke-linejoin:round;stroke-miterlimit:10;stroke-dasharray:none;stroke-opacity:1"
         id="path318" /></g><g
       id="g336"
       transform="matrix(0.35277777,0,0,-0.35277777,-89.284375,308.66782)"
       clip-path="url(#clipPath950)"
       style="stroke-width:0.75000002;stroke-dasharray:none"><path
         d="m 445,124.6 c 0,-11.3 -6.9,-22.7 -13.9,-22.7 H 291.7 c -7,0 -13.9,11.4 -13.9,22.7"
         style="fill:none;stroke:#000000;stroke-width:0.75000002;stroke-linecap:butt;stroke-linejoin:round;stroke-miterlimit:10;stroke-dasharray:none;stroke-opacity:1"
         id="path338" /></g><g
       id="g340"
       transform="matrix(0.35277777,0,0,-0.35277777,-89.284375,308.66782)"
       clip-path="url(#clipPath944)"><path
         d="M 445,124.6 Z"
         style="fill:none;stroke:#000000;stroke-width:0.75;stroke-linecap:butt;stroke-linejoin:round;stroke-miterlimit:10;stroke-dasharray:none;stroke-opacity:1"
         id="path342" /></g><g
       id="g344"
       transform="matrix(0.35277777,0,0,-0.35277777,-89.284375,308.66782)"
       clip-path="url(#clipPath938)"><path
         d="M 277.8,101.9 Z"
         style="fill:none;stroke:#000000;stroke-width:0.75;stroke-linecap:butt;stroke-linejoin:round;stroke-miterlimit:10;stroke-dasharray:none;stroke-opacity:1"
         id="path346" /></g></g></svg>
